<svg width="34" height="33" viewBox="0 0 34 33" fill="none" xmlns="http://www.w3.org/2000/svg">
<path fill-rule="evenodd" clip-rule="evenodd" d="M15.6948 10.5279V18.125C16.6948 16.5047 18.0397 15.2084 19.7294 14.2362C21.4191 13.264 23.2687 12.7779 25.2782 12.7779C26.0837 12.7779 26.8754 12.8612 27.6532 13.0279C28.4309 13.1945 29.1809 13.4398 29.9032 13.7637L27.0836 8.86121H22.7223L21.0002 5.52788H18.0557V4.13871H21.8336L23.5557 7.47204H26.3336L22.9169 1.37496C22.7966 1.15274 22.6276 0.979126 22.4098 0.854126C22.1923 0.729126 21.9586 0.666626 21.7086 0.666626H17.0836C16.6855 0.666626 16.3545 0.79857 16.0907 1.06246C15.8268 1.32635 15.6948 1.65732 15.6948 2.05538V9.13871H18.889L20.2782 10.5279H15.6948ZM8.29191 27.3333H12.9169C13.1947 27.3333 13.447 27.2523 13.674 27.0904C13.9007 26.9282 14.0557 26.722 14.139 26.472C14.0557 26.0926 13.9932 25.713 13.9515 25.3333C13.9098 24.9536 13.889 24.574 13.889 24.1945C13.889 23.6759 13.9261 23.1851 14.0002 22.722C14.0744 22.2593 14.1762 21.7963 14.3057 21.3333V17.1945H9.50024L7.83357 13.8612H3.33357L4.72232 12.472H8.72232L10.3615 15.8054H14.3057V10.5279H9.72232L11.1115 9.13871H14.3057V2.05538C14.3057 1.65732 14.1737 1.32635 13.9098 1.06246C13.6459 0.79857 13.315 0.666626 12.9169 0.666626H8.29191C8.04191 0.666626 7.80816 0.729126 7.59066 0.854126C7.37288 0.979126 7.20385 1.15274 7.08357 1.37496L3.66691 7.47204H6.44483L8.16691 4.13871H11.9448V5.52788H9.00024L7.27816 8.86121H2.91691L0.375241 13.3054C0.254963 13.6943 0.194824 13.9258 0.194824 14C0.194824 14.1202 0.210935 14.2359 0.243158 14.347C0.275658 14.4582 0.319685 14.574 0.375241 14.6945L2.91691 19.1387H7.27816L9.00024 22.472H11.9448V23.8612H8.16691L6.44483 20.5279H3.66691L7.08357 26.625C7.20385 26.8472 7.37288 27.0208 7.59066 27.1458C7.80816 27.2708 8.04191 27.3333 8.29191 27.3333ZM19.5907 29.8679C21.1693 31.4373 23.0651 32.222 25.2782 32.222C27.4909 32.222 29.3868 31.4373 30.9657 29.8679C32.5443 28.2984 33.3336 26.4073 33.3336 24.1945C33.3336 21.9629 32.5443 20.0577 30.9657 18.4791C29.3868 16.9005 27.4909 16.1112 25.2782 16.1112C23.0651 16.1112 21.1693 16.9005 19.5907 18.4791C18.0118 20.0577 17.2223 21.9629 17.2223 24.1945C17.2223 26.4073 18.0118 28.2984 19.5907 29.8679ZM20.4721 24.1387L25.2775 19.3333L30.0833 24.1387L29.1108 25.1112L25.9721 21.972V29H24.5833V21.972L21.4442 25.1112L20.4721 24.1387Z" fill="#E8EAED"/>
</svg>
