<svg width="19" height="10" viewBox="0 0 19 10" fill="none" xmlns="http://www.w3.org/2000/svg">
<path d="M4.5 2V0H18.5V2H4.5ZM4.5 6V4H18.5V6H4.5ZM4.5 10V8H18.5V10H4.5ZM1.5 2C1.21667 2 0.979167 1.90417 0.7875 1.7125C0.595833 1.52083 0.5 1.28333 0.5 1C0.5 0.716667 0.595833 0.479167 0.7875 0.2875C0.979167 0.0958333 1.21667 0 1.5 0C1.78333 0 2.02083 0.0958333 2.2125 0.2875C2.40417 0.479167 2.5 0.716667 2.5 1C2.5 1.28333 2.40417 1.52083 2.2125 1.7125C2.02083 1.90417 1.78333 2 1.5 2ZM1.5 6C1.21667 6 0.979167 5.90417 0.7875 5.7125C0.595833 5.52083 0.5 5.28333 0.5 5C0.5 4.71667 0.595833 4.47917 0.7875 4.2875C0.979167 4.09583 1.21667 4 1.5 4C1.78333 4 2.02083 4.09583 2.2125 4.2875C2.40417 4.47917 2.5 4.71667 2.5 5C2.5 5.28333 2.40417 5.52083 2.2125 5.7125C2.02083 5.90417 1.78333 6 1.5 6ZM1.5 10C1.21667 10 0.979167 9.90417 0.7875 9.7125C0.595833 9.52083 0.5 9.28333 0.5 9C0.5 8.71667 0.595833 8.47917 0.7875 8.2875C0.979167 8.09583 1.21667 8 1.5 8C1.78333 8 2.02083 8.09583 2.2125 8.2875C2.40417 8.47917 2.5 8.71667 2.5 9C2.5 9.28333 2.40417 9.52083 2.2125 9.7125C2.02083 9.90417 1.78333 10 1.5 10Z" fill="white"/>
</svg>
