<svg width="41" height="40" viewBox="0 0 41 40" fill="none" xmlns="http://www.w3.org/2000/svg">
<g clip-path="url(#clip0_523_2767)">
<path d="M8.63917 38.3329L13.4167 14.2216L9.61125 15.8049V21.3883H6.80583V13.9716L14.9446 10.5274C15.3335 10.3608 15.7432 10.2588 16.1737 10.2216C16.6043 10.1847 17.0233 10.2172 17.4308 10.3191C17.8753 10.4208 18.2711 10.5874 18.6183 10.8191C18.9656 11.0505 19.2503 11.3422 19.4725 11.6941L21.1946 14.4162C22.0093 15.694 23.0533 16.7124 24.3267 17.4716C25.5997 18.231 26.9908 18.6108 28.5 18.6108V21.3883C26.5556 21.3513 24.8333 20.9346 23.3333 20.1383C21.8333 19.3421 20.5047 18.1894 19.3475 16.6799L17.9446 22.6108L21.6667 26.0274V38.3329H18.8892V28.0549L14.7225 24.4441L11.5279 38.3329H8.63917ZM19.5279 8.77743C18.6668 8.77743 17.9283 8.46951 17.3125 7.85368C16.6969 7.23784 16.3892 6.49937 16.3892 5.63826C16.3892 4.77715 16.6969 4.03882 17.3125 3.42326C17.9283 2.80743 18.6668 2.49951 19.5279 2.49951C20.389 2.49951 21.1275 2.80743 21.7433 3.42326C22.3589 4.03882 22.6667 4.77715 22.6667 5.63826C22.6667 6.49937 22.3589 7.23784 21.7433 7.85368C21.1275 8.46951 20.389 8.77743 19.5279 8.77743Z" fill="#E3E3E3"/>
<path fill-rule="evenodd" clip-rule="evenodd" d="M32.0883 17.6667C29.8533 17.6667 27.9464 16.8772 26.3675 15.2983C24.7888 13.7194 23.9995 11.8099 23.9995 9.56958C23.9995 7.35653 24.7866 5.45833 26.3608 3.875C27.9347 2.29167 29.842 1.5 32.0829 1.5C34.3329 1.5 36.2426 2.28472 37.812 3.85417C39.3815 5.42361 40.1662 7.33333 40.1662 9.58333C40.1662 11.8333 39.3786 13.7431 37.8033 15.3125C36.228 16.8819 34.323 17.6667 32.0883 17.6667ZM36.055 12.5L34.9441 13.6113L31.3608 9.83333V4.41667H32.8883V9.36125L36.055 12.5Z" fill="#E3E3E3"/>
</g>
<defs>
<clipPath id="clip0_523_2767">
<rect width="40" height="40" fill="white" transform="translate(0.5)"/>
</clipPath>
</defs>
</svg>
