<svg width="41" height="40" viewBox="0 0 41 40" fill="none" xmlns="http://www.w3.org/2000/svg">
<path d="M13.8613 33.3337C13.1113 33.3337 12.4607 33.0582 11.9096 32.5074C11.3587 31.9563 11.0833 31.3057 11.0833 30.5557V26.1116H16.1946V21.3337C15.1668 21.3706 14.1551 21.2016 13.1596 20.8266C12.1643 20.4516 11.2685 19.8706 10.4721 19.0837V16.8616H8.44458L3 11.417C4 10.3614 5.20833 9.54658 6.625 8.97241C8.04167 8.39852 9.48153 8.11157 10.9446 8.11157C11.7501 8.11157 12.6274 8.21797 13.5763 8.43074C14.5254 8.6438 15.3982 8.99574 16.1946 9.48657V6.66699H35.5V28.7503C35.5 30.0281 35.0556 31.1114 34.1667 32.0003C33.2778 32.8892 32.1944 33.3337 30.9167 33.3337H13.8613ZM18.9721 26.1116H29.1112V28.7503C29.1112 29.2781 29.2801 29.711 29.6179 30.0491C29.956 30.3869 30.3889 30.5557 30.9167 30.5557C31.4444 30.5557 31.8774 30.3869 32.2154 30.0491C32.5532 29.711 32.7221 29.2781 32.7221 28.7503V9.44491H18.9721V11.3616L29 21.3891V23.3616H27.0279L21.9446 18.2782L21.3613 18.9449C20.9907 19.3521 20.6133 19.6807 20.2292 19.9307C19.845 20.1807 19.426 20.3984 18.9721 20.5837V26.1116ZM9.66667 14.0837H13.25V17.7503C13.6758 18.0281 14.1018 18.2319 14.5279 18.3616C14.9538 18.491 15.3889 18.5557 15.8333 18.5557C16.5092 18.5557 17.1735 18.3984 17.8263 18.0837C18.479 17.7689 18.9999 17.3985 19.3888 16.9724L19.9721 16.3057L17.2779 13.6116C16.4168 12.7505 15.4492 12.0814 14.375 11.6045C13.3008 11.1275 12.1574 10.8891 10.9446 10.8891C10.2593 10.8891 9.62958 10.9632 9.05542 11.1116C8.48153 11.2596 7.89819 11.4632 7.30542 11.7224L9.66667 14.0837ZM26.3333 28.8891H13.8613V30.5557H26.8054C26.6665 30.3613 26.5532 30.1206 26.4654 29.8337C26.3774 29.5467 26.3333 29.2319 26.3333 28.8891Z" fill="#E3E3E3"/>
</svg>
