<svg width="41" height="40" viewBox="0 0 41 40" fill="none" xmlns="http://www.w3.org/2000/svg">
<path d="M20.4721 33.9163C20.5832 34.3608 20.7661 34.84 21.0208 35.3538C21.2756 35.8677 21.5371 36.3145 21.8054 36.6943H8.27792C7.52792 36.6943 6.87736 36.4187 6.32625 35.8676C5.77542 35.3168 5.5 34.6663 5.5 33.9163V6.11092C5.5 5.36092 5.77542 4.71037 6.32625 4.15926C6.87736 3.60843 7.52792 3.33301 8.27792 3.33301H29.3888C30.1388 3.33301 30.7893 3.60843 31.3404 4.15926C31.8913 4.71037 32.1667 5.36092 32.1667 6.11092V19.4718C31.75 19.4162 31.2871 19.3884 30.7779 19.3884C30.2685 19.3884 29.8054 19.4162 29.3888 19.4718V6.11092H20V17.7218L15.9446 15.2497L11.8888 17.7218V6.11092H8.27792V33.9163H20.4721ZM30.7221 38.333C28.4538 38.333 26.5349 37.5483 24.9654 35.9788C23.396 34.4094 22.6113 32.4904 22.6113 30.2218C22.6113 27.9534 23.396 26.0345 24.9654 24.4651C26.5349 22.8956 28.4538 22.1109 30.7221 22.1109C32.9907 22.1109 34.9097 22.8956 36.4792 24.4651C38.0486 26.0345 38.8333 27.9534 38.8333 30.2218C38.8333 32.4904 38.0486 34.4094 36.4792 35.9788C34.9097 37.5483 32.9907 38.333 30.7221 38.333ZM28.6667 34.1663L34.8613 30.2218L28.6667 26.2776V34.1663ZM20.4721 6.11092H8.27792H29.3888H19.8613H20.4721Z" fill="#E3E3E3"/>
</svg>
