<svg width="41" height="40" viewBox="0 0 41 40" fill="none" xmlns="http://www.w3.org/2000/svg">
<path d="M31 29.2465L28 30.886V32V36H31V32V29.2465Z" fill="#55D16B"/>
<path d="M28 32V30.886L25.9617 32H28Z" fill="#55D16B"/>
<path d="M25.6635 29H24V29.9124L25.6635 29Z" fill="#55D16B"/>
<path d="M35 29H31.451L31 29.2465V32H35V29Z" fill="#55D16B"/>
<path fill-rule="evenodd" clip-rule="evenodd" d="M20.4724 35L8.52824 28.4721V18.4721L2.16699 15L20.4724 5L38.8337 15V28.25H36.0557V16.5833L32.417 18.4721V28.4721L31.451 29L31 29.2465V29V24H29.6391V20.0554L20.4724 25L11.3057 20V26.8196L20.4724 31.8471L24 29.9124V32H25.9617L20.4724 35ZM28 27.7185L25.6635 29H28V27.7185ZM20.4724 21.8333L33.0282 15L20.4724 8.25L7.97241 15L20.4724 21.8333Z" fill="#E3E3E3"/>
<path d="M28 27.7185L29.6391 26.8196V24H28V27.7185Z" fill="#55D16B"/>
<path d="M31 29V24H29.6391V26.8196L28 27.7185V29V30.886L31 29.2465V29Z" fill="#55D16B"/>
<path d="M28 30.886V29H25.6635L24 29.9124V32H25.9617L28 30.886Z" fill="#55D16B"/>
</svg>
