<svg width="35" height="32" viewBox="0 0 35 32" fill="none" xmlns="http://www.w3.org/2000/svg">
<g clip-path="url(#clip0_458_3729)">
<path fill-rule="evenodd" clip-rule="evenodd" d="M15.3335 28.9499L16.5418 30.0332L21 20.9999L12 11.4999L16.7393 2.99988C16.031 2.37275 15.243 1.85608 14.3752 1.44987C13.0696 0.838759 11.6946 0.533203 10.2502 0.533203C7.63905 0.533203 5.4585 1.4082 3.7085 3.1582C1.9585 4.9082 1.0835 7.08876 1.0835 9.69987C1.0835 10.9776 1.29877 12.2276 1.72933 13.4499C2.15988 14.6721 2.91683 16.0124 4.00016 17.4707C5.0835 18.929 6.54183 20.5749 8.37516 22.4082C10.2085 24.2415 12.5279 26.4221 15.3335 28.9499ZM21.1252 1.44987C20.4221 1.77895 19.7715 2.18052 19.1731 2.65459L15 11.4999L24 20.9999L19.5534 29.4999L20.1668 28.9499C22.9724 26.4221 25.2918 24.2415 27.1252 22.4082C28.9585 20.5749 30.4168 18.929 31.5002 17.4707C32.5835 16.0124 33.3404 14.6721 33.771 13.4499C34.2016 12.2276 34.4168 10.9776 34.4168 9.69987C34.4168 7.08876 33.5418 4.9082 31.7918 3.1582C30.0418 1.4082 27.8613 0.533203 25.2502 0.533203C23.8057 0.533203 22.4307 0.838759 21.1252 1.44987Z" fill="#DE3434"/>
</g>
<defs>
<clipPath id="clip0_458_3729">
<rect width="34" height="32" fill="white" transform="translate(0.75)"/>
</clipPath>
</defs>
</svg>
