<svg width="34" height="32" viewBox="0 0 34 32" fill="none" xmlns="http://www.w3.org/2000/svg">
<path d="M24.5005 1.5332C26.8624 1.53327 28.7833 2.31412 30.3345 3.86523C31.8858 5.41653 32.6665 7.33807 32.6665 9.7002C32.6665 10.863 32.471 12.0004 32.0776 13.1172C31.6908 14.2153 30.9932 15.4667 29.9478 16.874C28.903 18.2805 27.4805 19.8892 25.6685 21.7012C23.852 23.5177 21.5465 25.685 18.7495 28.2051L16.9995 29.7734L15.2515 28.2051H15.2505C12.4537 25.6851 10.1489 23.5176 8.33252 21.7012C6.52045 19.8891 5.09804 18.2805 4.05322 16.874C3.00766 15.4665 2.30921 14.2153 1.92236 13.1172C1.529 12.0004 1.33353 10.8629 1.3335 9.7002C1.3335 7.33807 2.11423 5.41653 3.66553 3.86523C5.21682 2.31394 7.13837 1.5332 9.50049 1.5332C10.7986 1.53325 12.0292 1.80665 13.2017 2.35547C14.3755 2.905 15.3852 3.67774 16.2378 4.68066L17.0005 5.57715L17.7622 4.68066C18.6149 3.67757 19.6252 2.90504 20.7993 2.35547C21.9718 1.80667 23.2023 1.5332 24.5005 1.5332Z" fill="url(#paint0_linear_236_4457)" stroke="#0B192C" stroke-width="2"/>
<defs>
<linearGradient id="paint0_linear_236_4457" x1="34" y1="0.999878" x2="-9.84285e-07" y2="30.9999" gradientUnits="userSpaceOnUse">
<stop offset="0.31886" stop-color="#E46E6E"/>
<stop offset="1" stop-color="#F7F0F0"/>
</linearGradient>
</defs>
</svg>
