<svg width="35" height="32" viewBox="0 0 35 32" fill="none" xmlns="http://www.w3.org/2000/svg">
<g clip-path="url(#clip0_458_3727)">
<path d="M17.7502 31.1165L15.3335 28.9499C12.5279 26.4221 10.2085 24.2415 8.37516 22.4082C6.54183 20.5749 5.0835 18.929 4.00016 17.4707C2.91683 16.0124 2.15988 14.6721 1.72933 13.4499C1.29877 12.2276 1.0835 10.9776 1.0835 9.69987C1.0835 7.08876 1.9585 4.9082 3.7085 3.1582C5.4585 1.4082 7.63905 0.533203 10.2502 0.533203C11.6946 0.533203 13.0696 0.838759 14.3752 1.44987C15.6807 2.06098 16.8057 2.92209 17.7502 4.0332C18.6946 2.92209 19.8196 2.06098 21.1252 1.44987C22.4307 0.838759 23.8057 0.533203 25.2502 0.533203C27.8613 0.533203 30.0418 1.4082 31.7918 3.1582C33.5418 4.9082 34.4168 7.08876 34.4168 9.69987C34.4168 10.9776 34.2016 12.2276 33.771 13.4499C33.3404 14.6721 32.5835 16.0124 31.5002 17.4707C30.4168 18.929 28.9585 20.5749 27.1252 22.4082C25.2918 24.2415 22.9724 26.4221 20.1668 28.9499L17.7502 31.1165Z" fill="#DE3434"/>
</g>
<defs>
<clipPath id="clip0_458_3727">
<rect width="34" height="32" fill="white" transform="translate(0.75)"/>
</clipPath>
</defs>
</svg>
