<svg width="34" height="31" viewBox="0 0 34 31" fill="none" xmlns="http://www.w3.org/2000/svg">
<path fill-rule="evenodd" clip-rule="evenodd" d="M14.334 28.95L15.5423 30.0333L20.0005 21L11.0005 11.5L15.7398 3C15.0315 2.37287 14.2435 1.8562 13.3757 1.44999C12.0701 0.838881 10.6951 0.533325 9.25065 0.533325C6.63954 0.533325 4.45898 1.40832 2.70898 3.15832C0.958984 4.90833 0.0839844 7.08888 0.0839844 9.69999C0.0839844 10.9778 0.299262 12.2278 0.729818 13.45C1.16037 14.6722 1.91732 16.0125 3.00065 17.4708C4.08398 18.9292 5.54232 20.575 7.37565 22.4083C9.20898 24.2417 11.5284 26.4222 14.334 28.95ZM20.1257 1.44999C19.4226 1.77907 18.7719 2.18064 18.1736 2.65471L14.0005 11.5L23.0005 21L18.5538 29.5L19.1673 28.95C21.9729 26.4222 24.2923 24.2417 26.1257 22.4083C27.959 20.575 29.4173 18.9292 30.5007 17.4708C31.584 16.0125 32.3409 14.6722 32.7715 13.45C33.202 12.2278 33.4173 10.9778 33.4173 9.69999C33.4173 7.08888 32.5423 4.90833 30.7923 3.15832C29.0423 1.40832 26.8618 0.533325 24.2507 0.533325C22.8062 0.533325 21.4312 0.838881 20.1257 1.44999Z" fill="#DE3434"/>
</svg>
