<svg width="34" height="32" viewBox="0 0 34 32" fill="none" xmlns="http://www.w3.org/2000/svg">
<path d="M9.25049 1.5332C10.3862 1.53324 11.4697 1.74315 12.5083 2.16309L12.9517 2.35547C13.4878 2.60644 13.9878 2.90479 14.4546 3.24805L10.1265 11.0127L9.76904 11.6543L10.2739 12.1875L18.7944 21.1816L15.228 28.4082L15.0015 28.2051H15.0005C12.2037 25.6851 9.89894 23.5176 8.08252 21.7012C6.27045 19.8891 4.84804 18.2805 3.80322 16.874C2.75766 15.4665 2.05921 14.2153 1.67236 13.1172C1.279 12.0004 1.08353 10.8629 1.0835 9.7002C1.0835 7.33807 1.86423 5.41653 3.41553 3.86523C4.96682 2.31394 6.88837 1.5332 9.25049 1.5332ZM24.2505 1.5332C26.6124 1.53327 28.5333 2.31412 30.0845 3.86523C31.6358 5.41653 32.4165 7.33807 32.4165 9.7002C32.4165 10.863 32.221 12.0004 31.8276 13.1172C31.4408 14.2153 30.7432 15.4667 29.6978 16.874C28.653 18.2805 27.2305 19.8892 25.4185 21.7012C24.4455 22.6742 23.3305 23.7463 22.0767 24.9209L23.8862 21.4639L24.2173 20.8311L23.7261 20.3125L15.1958 11.3086L18.9741 3.2998C19.3239 3.03711 19.693 2.80008 20.0825 2.58984L20.5493 2.35547C21.7218 1.80667 22.9523 1.5332 24.2505 1.5332Z" fill="#DE3434" stroke="#0B192C" stroke-width="2"/>
</svg>
