<svg width="34" height="32" viewBox="0 0 34 32" fill="none" xmlns="http://www.w3.org/2000/svg">
<path d="M24.2505 1.5332C26.6124 1.53327 28.5333 2.31412 30.0845 3.86523C31.6358 5.41653 32.4165 7.33807 32.4165 9.7002C32.4165 10.863 32.221 12.0004 31.8276 13.1172C31.4408 14.2153 30.7432 15.4667 29.6978 16.874C28.653 18.2805 27.2305 19.8892 25.4185 21.7012C23.602 23.5177 21.2965 25.685 18.4995 28.2051L16.7495 29.7734L15.0015 28.2051H15.0005C12.2037 25.6851 9.89894 23.5176 8.08252 21.7012C6.27045 19.8891 4.84804 18.2805 3.80322 16.874C2.75766 15.4665 2.05921 14.2153 1.67236 13.1172C1.279 12.0004 1.08353 10.8629 1.0835 9.7002C1.0835 7.33807 1.86423 5.41653 3.41553 3.86523C4.96682 2.31394 6.88837 1.5332 9.25049 1.5332C10.5486 1.53325 11.7792 1.80665 12.9517 2.35547C14.1255 2.905 15.1352 3.67774 15.9878 4.68066L16.7505 5.57715L17.5122 4.68066C18.3649 3.67757 19.3752 2.90504 20.5493 2.35547C21.7218 1.80667 22.9523 1.5332 24.2505 1.5332Z" fill="#DE3434" stroke="#0B192C" stroke-width="2"/>
</svg>
