<svg width="34" height="32" viewBox="0 0 34 32" fill="none" xmlns="http://www.w3.org/2000/svg">
<path d="M17.0007 31.1167L14.584 28.95C11.7784 26.4222 9.45898 24.2417 7.62565 22.4083C5.79232 20.575 4.33398 18.9292 3.25065 17.4708C2.16732 16.0125 1.41037 14.6722 0.979818 13.45C0.549262 12.2278 0.333984 10.9778 0.333984 9.69999C0.333984 7.08888 1.20898 4.90833 2.95898 3.15832C4.70898 1.40833 6.88954 0.533325 9.50065 0.533325C10.9451 0.533325 12.3201 0.838881 13.6257 1.44999C14.9312 2.0611 16.0562 2.92221 17.0007 4.03333C17.9451 2.92221 19.0701 2.0611 20.3757 1.44999C21.6812 0.838881 23.0562 0.533325 24.5007 0.533325C27.1118 0.533325 29.2923 1.40833 31.0423 3.15832C32.7923 4.90833 33.6673 7.08888 33.6673 9.69999C33.6673 10.9778 33.452 12.2278 33.0215 13.45C32.5909 14.6722 31.834 16.0125 30.7507 17.4708C29.6673 18.9292 28.209 20.575 26.3757 22.4083C24.5423 24.2417 22.2229 26.4222 19.4173 28.95L17.0007 31.1167Z" fill="white"/>
</svg>
