<svg width="34" height="32" viewBox="0 0 34 32" fill="none" xmlns="http://www.w3.org/2000/svg">
<g clip-path="url(#clip0_458_3731)">
<path d="M17.0002 31.1165L14.5835 28.9499C11.7779 26.4221 9.4585 24.2415 7.62516 22.4082C5.79183 20.5749 4.3335 18.929 3.25016 17.4707C2.16683 16.0124 1.40988 14.6721 0.979329 13.4499C0.548774 12.2276 0.333496 10.9776 0.333496 9.69987C0.333496 7.08876 1.2085 4.9082 2.9585 3.1582C4.7085 1.4082 6.88905 0.533203 9.50016 0.533203C10.9446 0.533203 12.3196 0.838759 13.6252 1.44987C14.9307 2.06098 16.0557 2.92209 17.0002 4.0332C17.9446 2.92209 19.0696 2.06098 20.3752 1.44987C21.6807 0.838759 23.0557 0.533203 24.5002 0.533203C27.1113 0.533203 29.2918 1.4082 31.0418 3.1582C32.7918 4.9082 33.6668 7.08876 33.6668 9.69987C33.6668 10.9776 33.4516 12.2276 33.021 13.4499C32.5904 14.6721 31.8335 16.0124 30.7502 17.4707C29.6668 18.929 28.2085 20.5749 26.3752 22.4082C24.5418 24.2415 22.2224 26.4221 19.4168 28.9499L17.0002 31.1165Z" fill="url(#paint0_linear_458_3731)"/>
</g>
<defs>
<linearGradient id="paint0_linear_458_3731" x1="34" y1="0.999878" x2="-9.84285e-07" y2="30.9999" gradientUnits="userSpaceOnUse">
<stop offset="0.31886" stop-color="#E46E6E"/>
<stop offset="1" stop-color="#F7F0F0"/>
</linearGradient>
<clipPath id="clip0_458_3731">
<rect width="34" height="32" fill="white"/>
</clipPath>
</defs>
</svg>
