<svg width="19" height="20" viewBox="0 0 19 20" fill="none" xmlns="http://www.w3.org/2000/svg">
<path d="M17.5222 19.5L10.8722 12.85C10.3444 13.2722 9.7375 13.6065 9.05139 13.8528C8.36528 14.0991 7.63519 14.2222 6.86111 14.2222C4.94352 14.2222 3.3206 13.5581 1.99236 12.2299C0.66412 10.9016 0 9.2787 0 7.36111C0 5.44352 0.66412 3.8206 1.99236 2.49236C3.3206 1.16412 4.94352 0.5 6.86111 0.5C8.7787 0.5 10.4016 1.16412 11.7299 2.49236C13.0581 3.8206 13.7222 5.44352 13.7222 7.36111C13.7222 8.13519 13.5991 8.86528 13.3528 9.55139C13.1065 10.2375 12.7722 10.8444 12.35 11.3722L19 18.0222L17.5222 19.5ZM6.86111 12.1111C8.18056 12.1111 9.30208 11.6493 10.2257 10.7257C11.1493 9.80208 11.6111 8.68056 11.6111 7.36111C11.6111 6.04167 11.1493 4.92014 10.2257 3.99653C9.30208 3.07292 8.18056 2.61111 6.86111 2.61111C5.54167 2.61111 4.42014 3.07292 3.49653 3.99653C2.57292 4.92014 2.11111 6.04167 2.11111 7.36111C2.11111 8.68056 2.57292 9.80208 3.49653 10.7257C4.42014 11.6493 5.54167 12.1111 6.86111 12.1111Z" fill="#B7B5B7"/>
</svg>
