<svg width="34" height="34" viewBox="0 0 34 34" fill="none" xmlns="http://www.w3.org/2000/svg">
<path d="M6.41665 26.0833C8.05554 24.9074 9.74067 23.9977 11.4721 23.3541C13.2037 22.7105 15.0464 22.3887 17 22.3887C18.9536 22.3887 20.8008 22.7105 22.5416 23.3541C24.2825 23.9977 25.9723 24.9074 27.6112 26.0833C28.7501 24.7035 29.5811 23.2637 30.1042 21.7637C30.6272 20.2637 30.8887 18.6758 30.8887 16.9999C30.8887 13.0833 29.5532 9.78923 26.8821 7.11784C24.2107 4.44673 20.9166 3.11117 17 3.11117C13.0833 3.11117 9.78929 4.44673 7.1179 7.11784C4.44679 9.78923 3.11123 13.0833 3.11123 16.9999C3.11123 18.6758 3.37734 20.2637 3.90956 21.7637C4.44206 23.2637 5.27776 24.7035 6.41665 26.0833ZM16.995 18.3887C15.378 18.3887 14.0162 17.8338 12.9096 16.7241C11.8032 15.6141 11.25 14.2506 11.25 12.6337C11.25 11.0167 11.805 9.65506 12.915 8.54867C14.0247 7.442 15.388 6.88867 17.005 6.88867C18.6219 6.88867 19.9837 7.44367 21.0904 8.55367C22.1968 9.66367 22.75 11.0271 22.75 12.6441C22.75 14.261 22.195 15.6227 21.085 16.7291C19.9753 17.8355 18.6119 18.3887 16.995 18.3887ZM17.0129 33.6666C14.7173 33.6666 12.5557 33.2291 10.5279 32.3541C8.50012 31.4791 6.73151 30.287 5.22206 28.7778C3.7129 27.2684 2.52081 25.502 1.64581 23.4787C0.770813 21.4553 0.333313 19.2933 0.333313 16.9924C0.333313 14.6919 0.770813 12.5323 1.64581 10.5137C2.52081 8.49534 3.7129 6.73145 5.22206 5.222C6.73151 3.71284 8.4979 2.52075 10.5212 1.64575C12.5446 0.770752 14.7066 0.333252 17.0075 0.333252C19.308 0.333252 21.4676 0.770752 23.4862 1.64575C25.5046 2.52075 27.2685 3.71284 28.7779 5.222C30.2871 6.73145 31.4792 8.49561 32.3541 10.5145C33.2291 12.5337 33.6666 14.6912 33.6666 16.987C33.6666 19.2826 33.2291 21.4442 32.3541 23.472C31.4792 25.4998 30.2871 27.2684 28.7779 28.7778C27.2685 30.287 25.5043 31.4791 23.4854 32.3541C21.4662 33.2291 19.3087 33.6666 17.0129 33.6666ZM17 30.8887C18.5091 30.8887 19.9675 30.6688 21.375 30.2291C22.7825 29.7894 24.139 29.0648 25.4446 28.0553C24.139 27.1203 22.7779 26.4051 21.3612 25.9095C19.9446 25.4142 18.4908 25.1666 17 25.1666C15.5091 25.1666 14.0554 25.4142 12.6387 25.9095C11.2221 26.4051 9.86095 27.1203 8.5554 28.0553C9.86095 29.0648 11.2175 29.7894 12.625 30.2291C14.0325 30.6688 15.4908 30.8887 17 30.8887ZM17 15.6112C17.8703 15.6112 18.5832 15.3334 19.1387 14.7778C19.6943 14.2223 19.9721 13.5092 19.9721 12.6387C19.9721 11.7684 19.6943 11.0555 19.1387 10.4999C18.5832 9.94436 17.8703 9.66659 17 9.66659C16.1297 9.66659 15.4168 9.94436 14.8612 10.4999C14.3057 11.0555 14.0279 11.7684 14.0279 12.6387C14.0279 13.5092 14.3057 14.2223 14.8612 14.7778C15.4168 15.3334 16.1297 15.6112 17 15.6112Z" fill="white"/>
</svg>
