<svg width="24" height="24" viewBox="0 0 24 24" fill="none" xmlns="http://www.w3.org/2000/svg">
<path d="M9.24136 14.0999L10.1329 11.2332L7.78286 9.38315H10.6664L11.5996 6.46665L12.5164 9.38315H15.4164L13.0579 11.2332L13.9329 14.0999L11.5996 12.3249L9.24136 14.0999ZM5.66636 23.3999V15.7582C4.95519 15.0027 4.43294 14.1638 4.09961 13.2417C3.76628 12.3193 3.59961 11.3721 3.59961 10.3999C3.59961 8.1444 4.36903 6.24715 5.90786 4.70815C7.44686 3.16932 9.34411 2.3999 11.5996 2.3999C13.8551 2.3999 15.7524 3.16932 17.2914 4.70815C18.8302 6.24715 19.5996 8.1444 19.5996 10.3999C19.5996 11.3721 19.4329 12.3193 19.0996 13.2417C18.7663 14.1638 18.244 15.0027 17.5329 15.7582V23.3999L11.5996 21.4167L5.66636 23.3999ZM11.5996 16.7332C13.3663 16.7332 14.8635 16.1193 16.0914 14.8917C17.319 13.6638 17.9329 12.1666 17.9329 10.3999C17.9329 8.63324 17.319 7.13599 16.0914 5.90815C14.8635 4.68049 13.3663 4.06665 11.5996 4.06665C9.83294 4.06665 8.33569 4.68049 7.10786 5.90815C5.88019 7.13599 5.26636 8.63324 5.26636 10.3999C5.26636 12.1666 5.88019 13.6638 7.10786 14.8917C8.33569 16.1193 9.83294 16.7332 11.5996 16.7332ZM7.33286 21.0082L11.5996 19.7499L15.8664 21.0082V17.1249C15.2274 17.5582 14.5399 17.8791 13.8039 18.0874C13.0677 18.2957 12.3329 18.3999 11.5996 18.3999C10.8663 18.3999 10.1315 18.2957 9.39536 18.0874C8.65936 17.8791 7.97186 17.5582 7.33286 17.1249V21.0082Z" fill="#E3E3E3"/>
</svg>
