<svg width="34" height="34" viewBox="0 0 34 34" fill="none" xmlns="http://www.w3.org/2000/svg">
<path d="M12.9169 33.6667L12.139 28.3888C11.6668 28.213 11.183 27.9816 10.6877 27.6946C10.1925 27.4074 9.74566 27.1064 9.34733 26.7917L4.41691 28.9863L0.305664 21.7917L4.7365 18.5138C4.69011 18.2824 4.66233 18.0302 4.65316 17.7571C4.64372 17.4838 4.639 17.2314 4.639 17C4.639 16.7687 4.64372 16.5163 4.65316 16.243C4.66233 15.9699 4.69011 15.7177 4.7365 15.4863L0.305664 12.2084L4.41691 5.01379L9.34733 7.20837C9.74566 6.89365 10.1948 6.59268 10.6948 6.30546C11.1948 6.01851 11.6762 5.79629 12.139 5.63879L12.9169 0.333374H21.0836L21.8615 5.61129C22.3337 5.78712 22.8221 6.01393 23.3265 6.29171C23.8312 6.56949 24.2734 6.87504 24.6532 7.20837L29.5836 5.01379L33.6948 12.2084L29.264 15.4305C29.3104 15.6805 29.3382 15.9421 29.3473 16.2155C29.3568 16.4885 29.3615 16.75 29.3615 17C29.3615 17.25 29.3568 17.507 29.3473 17.7709C29.3382 18.0348 29.3058 18.2917 29.2502 18.5417L33.6807 21.7917L29.5698 28.9863L24.6532 26.7917C24.2548 27.1064 23.8104 27.412 23.3198 27.7084C22.829 28.0048 22.3429 28.2316 21.8615 28.3888L21.0836 33.6667H12.9169ZM15.2223 30.8888H18.764L19.3473 26.3055C20.2457 26.0832 21.0907 25.743 21.8823 25.2846C22.674 24.8263 23.3939 24.2731 24.0419 23.625L28.3615 25.4721L30.014 22.528L26.2086 19.7084C26.3289 19.2639 26.4215 18.8171 26.4865 18.368C26.5512 17.9191 26.5836 17.4631 26.5836 17C26.5836 16.537 26.5558 16.081 26.5002 15.6321C26.4447 15.183 26.3475 14.7362 26.2086 14.2917L30.014 11.4721L28.3615 8.52796L24.0419 10.3888C23.4122 9.69435 22.7062 9.11338 21.924 8.64587C21.1415 8.17837 20.2826 7.86129 19.3473 7.69462L18.7782 3.11129H15.2365L14.6532 7.69462C13.7365 7.89824 12.8823 8.22921 12.0907 8.68754C11.299 9.14588 10.5883 9.70838 9.95858 10.375L5.639 8.52796L3.9865 11.4721L7.79191 14.278C7.67164 14.7316 7.579 15.1806 7.514 15.625C7.44928 16.0695 7.41691 16.5278 7.41691 17C7.41691 17.4631 7.44928 17.9168 7.514 18.3613C7.579 18.8057 7.67164 19.2548 7.79191 19.7084L3.9865 22.528L5.639 25.4721L9.95858 23.6113C10.6066 24.2685 11.3265 24.8263 12.1182 25.2846C12.9098 25.743 13.7548 26.0832 14.6532 26.3055L15.2223 30.8888ZM17.0282 22.5555C18.5651 22.5555 19.8752 22.0138 20.9586 20.9305C22.0419 19.8471 22.5836 18.537 22.5836 17C22.5836 15.4631 22.0419 14.153 20.9586 13.0696C19.8752 11.9863 18.5651 11.4446 17.0282 11.4446C15.4818 11.4446 14.1693 11.9863 13.0907 13.0696C12.0118 14.153 11.4723 15.4631 11.4723 17C11.4723 18.537 12.0118 19.8471 13.0907 20.9305C14.1693 22.0138 15.4818 22.5555 17.0282 22.5555Z" fill="white"/>
</svg>
