<svg width="18" height="18" viewBox="0 0 18 18" fill="none" xmlns="http://www.w3.org/2000/svg">
<path d="M3.50018 7.05561C4.01407 7.05561 4.50942 7.15047 4.98622 7.34019C5.46317 7.53005 5.89372 7.80324 6.27789 8.15977L14.4168 15.9444H14.8335C15.1484 15.9444 15.4123 15.8379 15.6252 15.625C15.8381 15.4121 15.9446 15.1482 15.9446 14.8333C15.9446 14.6926 15.9313 14.5431 15.9048 14.3848C15.8781 14.2264 15.7849 14.0681 15.6252 13.9098L11.8543 10.1389L10.3058 5.49998L8.51414 5.94436C8.06969 6.05547 7.66921 5.97449 7.31268 5.70144C6.95615 5.42824 6.77789 5.06248 6.77789 4.60415V2.67352L5.83351 2.20144L2.33351 6.89581C2.31032 6.91901 2.29178 6.94331 2.27789 6.96873C2.264 6.99415 2.24553 7.02311 2.22247 7.05561H3.50018ZM3.50018 8.44436H2.09747C2.13914 8.57866 2.19817 8.7022 2.27456 8.81498C2.35094 8.92776 2.44004 9.03109 2.54185 9.12498L9.48622 15.4375C9.66678 15.6087 9.86817 15.736 10.0904 15.8194C10.3126 15.9027 10.5464 15.9444 10.7918 15.9444H12.4029L5.32664 9.17352C5.08122 8.93741 4.80018 8.75686 4.48351 8.63186C4.16671 8.50686 3.83893 8.44436 3.50018 8.44436ZM10.7918 17.3333C10.3752 17.3333 9.97935 17.2569 9.60435 17.1041C9.22935 16.9514 8.88212 16.7361 8.56268 16.4583L1.79185 10.3125C1.15296 9.72915 0.795319 9.01387 0.71893 8.16665C0.642541 7.31943 0.861291 6.54859 1.37518 5.85415L4.58351 1.56248C4.81962 1.24304 5.1356 1.03123 5.53143 0.927064C5.92726 0.822898 6.30574 0.868037 6.66685 1.06248L7.25018 1.35415C7.54185 1.50693 7.76754 1.71526 7.92726 1.97915C8.08699 2.24304 8.16685 2.5347 8.16685 2.85415V4.60415L9.70851 4.20831C10.1252 4.0972 10.528 4.14929 10.9168 4.36456C11.3057 4.57984 11.5696 4.88887 11.7085 5.29165L13.0627 9.37498L16.6043 12.9166C16.8821 13.1944 17.0731 13.493 17.1773 13.8125C17.2814 14.1319 17.3335 14.4722 17.3335 14.8333C17.3335 15.5278 17.0905 16.118 16.6043 16.6041C16.1182 17.0903 15.528 17.3333 14.8335 17.3333H10.7918Z" fill="white"/>
</svg>
