<svg width="34" height="34" viewBox="0 0 34 34" fill="none" xmlns="http://www.w3.org/2000/svg">
<path d="M12.9163 24.222L24.2218 16.9999L12.9163 9.77784V24.222ZM16.9997 33.6666C14.7127 33.6666 12.5554 33.2291 10.5276 32.3541C8.49981 31.4791 6.7312 30.287 5.22176 28.7778C3.71259 27.2684 2.52051 25.4998 1.64551 23.472C0.770508 21.4442 0.333008 19.2869 0.333008 16.9999C0.333008 14.6944 0.770508 12.5277 1.64551 10.4999C2.52051 8.47214 3.71259 6.70825 5.22176 5.20825C6.7312 3.70825 8.49981 2.52075 10.5276 1.64575C12.5554 0.770752 14.7127 0.333252 16.9997 0.333252C19.3052 0.333252 21.4719 0.770752 23.4997 1.64575C25.5275 2.52075 27.2913 3.70825 28.7913 5.20825C30.2913 6.70825 31.4788 8.47214 32.3538 10.4999C33.2288 12.5277 33.6663 14.6944 33.6663 16.9999C33.6663 19.2869 33.2288 21.4442 32.3538 23.472C31.4788 25.4998 30.2913 27.2684 28.7913 28.7778C27.2913 30.287 25.5275 31.4791 23.4997 32.3541C21.4719 33.2291 19.3052 33.6666 16.9997 33.6666ZM16.9997 30.8887C20.87 30.8887 24.1523 29.5369 26.8468 26.8333C29.5412 24.1296 30.8884 20.8519 30.8884 16.9999C30.8884 13.1296 29.5412 9.84728 26.8468 7.15284C24.1523 4.45839 20.87 3.11117 16.9997 3.11117C13.1477 3.11117 9.86995 4.45839 7.16634 7.15284C4.46273 9.84728 3.11092 13.1296 3.11092 16.9999C3.11092 20.8519 4.46273 24.1296 7.16634 26.8333C9.86995 29.5369 13.1477 30.8887 16.9997 30.8887Z" fill="#020202" fill-opacity="0.5"/>
</svg>
