<svg width="14" height="15" viewBox="0 0 14 15" fill="none" xmlns="http://www.w3.org/2000/svg">
<path d="M7 7.5C6.0375 7.5 5.21354 7.15729 4.52812 6.47188C3.84271 5.78646 3.5 4.9625 3.5 4C3.5 3.0375 3.84271 2.21354 4.52812 1.52812C5.21354 0.842708 6.0375 0.5 7 0.5C7.9625 0.5 8.78646 0.842708 9.47188 1.52812C10.1573 2.21354 10.5 3.0375 10.5 4C10.5 4.9625 10.1573 5.78646 9.47188 6.47188C8.78646 7.15729 7.9625 7.5 7 7.5ZM0 14.5V12.05C0 11.5542 0.127604 11.0984 0.382812 10.6828C0.638021 10.2672 0.977083 9.95 1.4 9.73125C2.30417 9.27917 3.22292 8.9401 4.15625 8.71406C5.08958 8.48802 6.0375 8.375 7 8.375C7.9625 8.375 8.91042 8.48802 9.84375 8.71406C10.7771 8.9401 11.6958 9.27917 12.6 9.73125C13.0229 9.95 13.362 10.2672 13.6172 10.6828C13.8724 11.0984 14 11.5542 14 12.05V14.5H0Z" fill="#D0CBCB"/>
</svg>
