<svg width="24" height="25" viewBox="0 0 24 25" fill="none" xmlns="http://www.w3.org/2000/svg">
<path d="M10 12.5C8.9 12.5 7.95833 12.1083 7.175 11.325C6.39167 10.5417 6 9.6 6 8.5C6 7.4 6.39167 6.45833 7.175 5.675C7.95833 4.89167 8.9 4.5 10 4.5C11.1 4.5 12.0417 4.89167 12.825 5.675C13.6083 6.45833 14 7.4 14 8.5C14 9.6 13.6083 10.5417 12.825 11.325C12.0417 12.1083 11.1 12.5 10 12.5ZM2 20.5V17.7C2 17.15 2.14167 16.6333 2.425 16.15C2.70833 15.6667 3.1 15.3 3.6 15.05C4.45 14.6167 5.40833 14.25 6.475 13.95C7.54167 13.65 8.71667 13.5 10 13.5H10.35C10.45 13.5 10.55 13.5167 10.65 13.55C10.5167 13.85 10.4042 14.1625 10.3125 14.4875C10.2208 14.8125 10.15 15.15 10.1 15.5H10C8.81667 15.5 7.75417 15.65 6.8125 15.95C5.87083 16.25 5.1 16.55 4.5 16.85C4.35 16.9333 4.22917 17.05 4.1375 17.2C4.04583 17.35 4 17.5167 4 17.7V18.5H10.3C10.4 18.85 10.5333 19.1958 10.7 19.5375C10.8667 19.8792 11.05 20.2 11.25 20.5H2ZM16 21.5L15.7 20C15.5 19.9167 15.3125 19.8292 15.1375 19.7375C14.9625 19.6458 14.7833 19.5333 14.6 19.4L13.15 19.85L12.15 18.15L13.3 17.15C13.2667 16.9167 13.25 16.7 13.25 16.5C13.25 16.3 13.2667 16.0833 13.3 15.85L12.15 14.85L13.15 13.15L14.6 13.6C14.7833 13.4667 14.9625 13.3542 15.1375 13.2625C15.3125 13.1708 15.5 13.0833 15.7 13L16 11.5H18L18.3 13C18.5 13.0833 18.6875 13.175 18.8625 13.275C19.0375 13.375 19.2167 13.5 19.4 13.65L20.85 13.15L21.85 14.9L20.7 15.9C20.7333 16.1 20.75 16.3083 20.75 16.525C20.75 16.7417 20.7333 16.95 20.7 17.15L21.85 18.15L20.85 19.85L19.4 19.4C19.2167 19.5333 19.0375 19.6458 18.8625 19.7375C18.6875 19.8292 18.5 19.9167 18.3 20L18 21.5H16ZM17 18.5C17.55 18.5 18.0208 18.3042 18.4125 17.9125C18.8042 17.5208 19 17.05 19 16.5C19 15.95 18.8042 15.4792 18.4125 15.0875C18.0208 14.6958 17.55 14.5 17 14.5C16.45 14.5 15.9792 14.6958 15.5875 15.0875C15.1958 15.4792 15 15.95 15 16.5C15 17.05 15.1958 17.5208 15.5875 17.9125C15.9792 18.3042 16.45 18.5 17 18.5ZM10 10.5C10.55 10.5 11.0208 10.3042 11.4125 9.9125C11.8042 9.52083 12 9.05 12 8.5C12 7.95 11.8042 7.47917 11.4125 7.0875C11.0208 6.69583 10.55 6.5 10 6.5C9.45 6.5 8.97917 6.69583 8.5875 7.0875C8.19583 7.47917 8 7.95 8 8.5C8 9.05 8.19583 9.52083 8.5875 9.9125C8.97917 10.3042 9.45 10.5 10 10.5Z" fill="white"/>
</svg>
