<svg width="34" height="34" viewBox="0 0 34 34" fill="none" xmlns="http://www.w3.org/2000/svg">
<path d="M12.9168 24.2222L24.2222 17.0002L12.9168 9.77808V24.2222ZM17.0002 33.6668C14.7132 33.6668 12.5559 33.2293 10.5281 32.3543C8.5003 31.4793 6.73169 30.2872 5.22225 28.7781C3.71308 27.2686 2.521 25.5 1.646 23.4722C0.770996 21.4445 0.333496 19.2871 0.333496 17.0002C0.333496 14.6946 0.770996 12.5279 1.646 10.5002C2.521 8.47239 3.71308 6.7085 5.22225 5.2085C6.73169 3.7085 8.5003 2.521 10.5281 1.646C12.5559 0.770996 14.7132 0.333496 17.0002 0.333496C19.3057 0.333496 21.4724 0.770996 23.5002 1.646C25.5279 2.521 27.2918 3.7085 28.7918 5.2085C30.2918 6.7085 31.4793 8.47239 32.3543 10.5002C33.2293 12.5279 33.6668 14.6946 33.6668 17.0002C33.6668 19.2871 33.2293 21.4445 32.3543 23.4722C31.4793 25.5 30.2918 27.2686 28.7918 28.7781C27.2918 30.2872 25.5279 31.4793 23.5002 32.3543C21.4724 33.2293 19.3057 33.6668 17.0002 33.6668ZM17.0002 30.8889C20.8704 30.8889 24.1528 29.5371 26.8472 26.8335C29.5417 24.1299 30.8889 20.8521 30.8889 17.0002C30.8889 13.1299 29.5417 9.84752 26.8472 7.15308C24.1528 4.45863 20.8704 3.11141 17.0002 3.11141C13.1482 3.11141 9.87044 4.45863 7.16683 7.15308C4.46322 9.84752 3.11141 13.1299 3.11141 17.0002C3.11141 20.8521 4.46322 24.1299 7.16683 26.8335C9.87044 29.5371 13.1482 30.8889 17.0002 30.8889Z" fill="#020202" fill-opacity="0.5"/>
</svg>
